<mxfile host="Electron" modified="2023-09-29T03:47:41.822Z" agent="Mozilla/5.0 (Windows NT 10.0; Win64; x64) AppleWebKit/537.36 (KHTML, like Gecko) draw.io/21.8.2 Chrome/114.0.5735.289 Electron/25.8.1 Safari/537.36" etag="c1kOa9op5U0Z1PUjTmmm" version="21.8.2" type="device">
  <diagram name="Page-1" id="EnGXLHo2R4lTA_jcXcus">
    <mxGraphModel dx="1152" dy="1788" grid="1" gridSize="10" guides="1" tooltips="1" connect="1" arrows="1" fold="1" page="1" pageScale="1" pageWidth="850" pageHeight="1100" background="#ffffff" math="0" shadow="0">
      <root>
        <mxCell id="0" />
        <mxCell id="1" parent="0" />
        <mxCell id="sG9W1Nn58OFG4seVG1Zx-1" value="" style="rounded=0;whiteSpace=wrap;html=1;fillColor=#fff2cc;strokeColor=#d6b656;fontStyle=1;gradientColor=#5cdce6;" parent="1" vertex="1">
          <mxGeometry x="80" y="40" width="640" height="350" as="geometry" />
        </mxCell>
        <mxCell id="sG9W1Nn58OFG4seVG1Zx-2" value="" style="endArrow=none;html=1;rounded=0;exitX=1.003;exitY=0.144;exitDx=0;exitDy=0;exitPerimeter=0;entryX=-0.003;entryY=0.141;entryDx=0;entryDy=0;entryPerimeter=0;" parent="1" edge="1">
          <mxGeometry width="50" height="50" relative="1" as="geometry">
            <mxPoint x="681.8" y="89.96000000000004" as="sourcePoint" />
            <mxPoint x="78.20000000000005" y="88.94000000000005" as="targetPoint" />
          </mxGeometry>
        </mxCell>
        <mxCell id="sG9W1Nn58OFG4seVG1Zx-3" value="" style="rounded=0;html=1;labelBackgroundColor=#96d3ee;" parent="1" vertex="1">
          <mxGeometry x="100" y="50" width="80" height="30" as="geometry" />
        </mxCell>
        <mxCell id="sG9W1Nn58OFG4seVG1Zx-7" value="CryptoWall" style="text;html=1;strokeColor=none;fillColor=none;align=center;verticalAlign=middle;whiteSpace=wrap;rounded=0;fontStyle=1;labelBackgroundColor=none;" parent="1" vertex="1">
          <mxGeometry x="110" y="50" width="60" height="30" as="geometry" />
        </mxCell>
        <mxCell id="sG9W1Nn58OFG4seVG1Zx-19" value="&lt;font style=&quot;font-size: 21px;&quot;&gt;Welcome&lt;/font&gt;" style="text;html=1;strokeColor=none;fillColor=#ffffff;align=center;verticalAlign=middle;whiteSpace=wrap;rounded=0;fontStyle=1" parent="1" vertex="1">
          <mxGeometry x="180" y="100" width="170" height="40" as="geometry" />
        </mxCell>
        <mxCell id="sG9W1Nn58OFG4seVG1Zx-20" value="" style="endArrow=none;html=1;rounded=0;entryX=0;entryY=0;entryDx=0;entryDy=0;exitX=-0.15;exitY=1.333;exitDx=0;exitDy=0;exitPerimeter=0;" parent="1" source="sG9W1Nn58OFG4seVG1Zx-12" target="sG9W1Nn58OFG4seVG1Zx-22" edge="1">
          <mxGeometry width="50" height="50" relative="1" as="geometry">
            <mxPoint x="440" y="190" as="sourcePoint" />
            <mxPoint x="414.4000000000001" y="41.049999999999955" as="targetPoint" />
          </mxGeometry>
        </mxCell>
        <mxCell id="sG9W1Nn58OFG4seVG1Zx-22" value="" style="rounded=0;whiteSpace=wrap;html=1;" parent="1" vertex="1">
          <mxGeometry x="390" y="40" width="330" height="50" as="geometry" />
        </mxCell>
        <mxCell id="sG9W1Nn58OFG4seVG1Zx-12" value="Home" style="text;html=1;strokeColor=none;fillColor=none;align=center;verticalAlign=middle;whiteSpace=wrap;rounded=0;" parent="1" vertex="1">
          <mxGeometry x="405" y="50" width="60" height="30" as="geometry" />
        </mxCell>
        <mxCell id="mrvA4lwMwm_4txeW7Z3V-27" style="edgeStyle=orthogonalEdgeStyle;rounded=0;orthogonalLoop=1;jettySize=auto;html=1;exitX=0.5;exitY=0;exitDx=0;exitDy=0;entryX=0;entryY=0.5;entryDx=0;entryDy=0;" parent="1" source="sG9W1Nn58OFG4seVG1Zx-5" target="mrvA4lwMwm_4txeW7Z3V-4" edge="1">
          <mxGeometry relative="1" as="geometry" />
        </mxCell>
        <mxCell id="sG9W1Nn58OFG4seVG1Zx-5" value="login" style="text;html=1;strokeColor=none;fillColor=none;align=center;verticalAlign=middle;whiteSpace=wrap;rounded=0;" parent="1" vertex="1">
          <mxGeometry x="450" y="50" width="60" height="30" as="geometry" />
        </mxCell>
        <mxCell id="mrvA4lwMwm_4txeW7Z3V-30" style="edgeStyle=elbowEdgeStyle;rounded=0;orthogonalLoop=1;jettySize=auto;html=1;exitX=0.5;exitY=1;exitDx=0;exitDy=0;entryX=0;entryY=0.5;entryDx=0;entryDy=0;" parent="1" source="sG9W1Nn58OFG4seVG1Zx-6" target="sG9W1Nn58OFG4seVG1Zx-26" edge="1">
          <mxGeometry relative="1" as="geometry" />
        </mxCell>
        <mxCell id="sG9W1Nn58OFG4seVG1Zx-6" value="Singup" style="text;html=1;strokeColor=none;fillColor=none;align=center;verticalAlign=middle;whiteSpace=wrap;rounded=0;" parent="1" vertex="1">
          <mxGeometry x="500" y="50" width="60" height="30" as="geometry" />
        </mxCell>
        <mxCell id="sG9W1Nn58OFG4seVG1Zx-9" value="About us" style="text;html=1;strokeColor=none;fillColor=none;align=center;verticalAlign=middle;whiteSpace=wrap;rounded=0;" parent="1" vertex="1">
          <mxGeometry x="560" y="50" width="60" height="30" as="geometry" />
        </mxCell>
        <mxCell id="sG9W1Nn58OFG4seVG1Zx-11" value="Contact us" style="text;html=1;strokeColor=none;fillColor=none;align=center;verticalAlign=middle;whiteSpace=wrap;rounded=0;" parent="1" vertex="1">
          <mxGeometry x="630" y="50" width="60" height="30" as="geometry" />
        </mxCell>
        <mxCell id="sG9W1Nn58OFG4seVG1Zx-14" value="&lt;h1 style=&quot;border-color: var(--border-color);&quot;&gt;Wondering how to get your e-wallet?&lt;/h1&gt;&lt;div&gt;Simple 1st Singup then Create wallet.&lt;/div&gt;&lt;div&gt;&lt;br&gt;&lt;/div&gt;&lt;div&gt;&lt;span style=&quot;white-space: pre;&quot;&gt;&#x9;&lt;/span&gt;&lt;span style=&quot;white-space: pre;&quot;&gt;&#x9;&lt;/span&gt;&lt;span style=&quot;white-space: pre;&quot;&gt;&#x9;&lt;/span&gt;&lt;span style=&quot;white-space: pre;&quot;&gt;&#x9;&lt;/span&gt;&lt;span style=&quot;white-space: pre;&quot;&gt;&#x9;&lt;/span&gt;&lt;span style=&quot;white-space: pre;&quot;&gt;&#x9;&lt;/span&gt;&lt;br&gt;&lt;/div&gt;" style="text;html=1;spacing=5;spacingTop=-20;whiteSpace=wrap;overflow=hidden;rounded=0;fillColor=default;gradientColor=#9de6ec;" parent="1" vertex="1">
          <mxGeometry x="180" y="140" width="460" height="130" as="geometry" />
        </mxCell>
        <mxCell id="mrvA4lwMwm_4txeW7Z3V-3" style="edgeStyle=orthogonalEdgeStyle;rounded=0;orthogonalLoop=1;jettySize=auto;html=1;exitX=1;exitY=0.5;exitDx=0;exitDy=0;entryX=0;entryY=0.5;entryDx=0;entryDy=0;" parent="1" source="sG9W1Nn58OFG4seVG1Zx-23" target="sG9W1Nn58OFG4seVG1Zx-26" edge="1">
          <mxGeometry relative="1" as="geometry" />
        </mxCell>
        <mxCell id="sG9W1Nn58OFG4seVG1Zx-23" value="Get start" style="rounded=1;whiteSpace=wrap;html=1;gradientColor=#0acdb6;" parent="1" vertex="1">
          <mxGeometry x="350" y="230" width="100" height="30" as="geometry" />
        </mxCell>
        <mxCell id="sG9W1Nn58OFG4seVG1Zx-26" value="" style="rounded=0;whiteSpace=wrap;html=1;fillColor=#fff2cc;strokeColor=#d6b656;fontStyle=1;gradientColor=#b6dfe2;" parent="1" vertex="1">
          <mxGeometry x="763.5999999999999" y="230" width="638.2" height="350" as="geometry" />
        </mxCell>
        <mxCell id="sG9W1Nn58OFG4seVG1Zx-27" value="" style="endArrow=none;html=1;rounded=0;exitX=1.003;exitY=0.144;exitDx=0;exitDy=0;exitPerimeter=0;entryX=-0.003;entryY=0.141;entryDx=0;entryDy=0;entryPerimeter=0;" parent="1" edge="1">
          <mxGeometry width="50" height="50" relative="1" as="geometry">
            <mxPoint x="1365.3999999999999" y="279.96000000000004" as="sourcePoint" />
            <mxPoint x="761.8" y="278.94000000000005" as="targetPoint" />
          </mxGeometry>
        </mxCell>
        <mxCell id="sG9W1Nn58OFG4seVG1Zx-28" value="" style="rounded=0;html=1;labelBackgroundColor=#96d3ee;" parent="1" vertex="1">
          <mxGeometry x="783.5999999999999" y="240" width="80" height="30" as="geometry" />
        </mxCell>
        <mxCell id="sG9W1Nn58OFG4seVG1Zx-29" value="CryptoWall" style="text;html=1;strokeColor=none;fillColor=none;align=center;verticalAlign=middle;whiteSpace=wrap;rounded=0;fontStyle=1;labelBackgroundColor=none;" parent="1" vertex="1">
          <mxGeometry x="793.5999999999999" y="240" width="60" height="30" as="geometry" />
        </mxCell>
        <mxCell id="sG9W1Nn58OFG4seVG1Zx-30" value="&lt;font style=&quot;font-size: 21px;&quot;&gt;Singup&lt;/font&gt;" style="text;html=1;strokeColor=none;fillColor=none;align=center;verticalAlign=middle;whiteSpace=wrap;rounded=0;fontStyle=1;gradientColor=#CCE5FF;" parent="1" vertex="1">
          <mxGeometry x="1161.8" y="290" width="130" height="40" as="geometry" />
        </mxCell>
        <mxCell id="sG9W1Nn58OFG4seVG1Zx-31" value="" style="endArrow=none;html=1;rounded=0;entryX=0;entryY=0;entryDx=0;entryDy=0;exitX=-0.15;exitY=1.333;exitDx=0;exitDy=0;exitPerimeter=0;" parent="1" source="sG9W1Nn58OFG4seVG1Zx-33" target="sG9W1Nn58OFG4seVG1Zx-32" edge="1">
          <mxGeometry width="50" height="50" relative="1" as="geometry">
            <mxPoint x="1121.8" y="380" as="sourcePoint" />
            <mxPoint x="1095.3719999999998" y="231.04999999999995" as="targetPoint" />
          </mxGeometry>
        </mxCell>
        <mxCell id="sG9W1Nn58OFG4seVG1Zx-32" value="" style="rounded=0;whiteSpace=wrap;html=1;" parent="1" vertex="1">
          <mxGeometry x="1071.8" y="230" width="330" height="50" as="geometry" />
        </mxCell>
        <mxCell id="sG9W1Nn58OFG4seVG1Zx-33" value="Home" style="text;html=1;strokeColor=none;fillColor=none;align=center;verticalAlign=middle;whiteSpace=wrap;rounded=0;" parent="1" vertex="1">
          <mxGeometry x="1086.8" y="240" width="60" height="30" as="geometry" />
        </mxCell>
        <mxCell id="sG9W1Nn58OFG4seVG1Zx-34" value="login" style="text;html=1;strokeColor=none;fillColor=none;align=center;verticalAlign=middle;whiteSpace=wrap;rounded=0;" parent="1" vertex="1">
          <mxGeometry x="1131.8" y="240" width="60" height="30" as="geometry" />
        </mxCell>
        <mxCell id="sG9W1Nn58OFG4seVG1Zx-35" value="Singup" style="text;html=1;strokeColor=none;fillColor=none;align=center;verticalAlign=middle;whiteSpace=wrap;rounded=0;" parent="1" vertex="1">
          <mxGeometry x="1181.8" y="240" width="60" height="30" as="geometry" />
        </mxCell>
        <mxCell id="sG9W1Nn58OFG4seVG1Zx-36" value="About us" style="text;html=1;strokeColor=none;fillColor=none;align=center;verticalAlign=middle;whiteSpace=wrap;rounded=0;" parent="1" vertex="1">
          <mxGeometry x="1241.8" y="240" width="60" height="30" as="geometry" />
        </mxCell>
        <mxCell id="sG9W1Nn58OFG4seVG1Zx-37" value="Contact us" style="text;html=1;strokeColor=none;fillColor=none;align=center;verticalAlign=middle;whiteSpace=wrap;rounded=0;" parent="1" vertex="1">
          <mxGeometry x="1311.8" y="240" width="60" height="30" as="geometry" />
        </mxCell>
        <mxCell id="sG9W1Nn58OFG4seVG1Zx-38" value="&lt;h1 style=&quot;text-align: center; border-color: var(--border-color);&quot;&gt;&lt;u&gt;Some information&lt;/u&gt;&lt;/h1&gt;&lt;div&gt;&lt;font style=&quot;font-size: 18px;&quot;&gt;About crypto e-wallet. how to create or how to use ,whetre to use.&lt;/font&gt;&lt;/div&gt;" style="text;html=1;spacing=5;spacingTop=-20;whiteSpace=wrap;overflow=hidden;rounded=0;fillColor=#cdf9ee;gradientColor=#cdf5f9;align=left;" parent="1" vertex="1">
          <mxGeometry x="783.5999999999999" y="330" width="288.2" height="240" as="geometry" />
        </mxCell>
        <mxCell id="sG9W1Nn58OFG4seVG1Zx-41" value="" style="rounded=0;whiteSpace=wrap;html=1;gradientColor=#e9fbfb;fillColor=#cdf2f4;strokeColor=#ffffff;" parent="1" vertex="1">
          <mxGeometry x="1101.8" y="330" width="260" height="240" as="geometry" />
        </mxCell>
        <mxCell id="sG9W1Nn58OFG4seVG1Zx-42" value="Name :" style="text;html=1;strokeColor=none;fillColor=none;align=left;verticalAlign=middle;whiteSpace=wrap;rounded=0;" parent="1" vertex="1">
          <mxGeometry x="1128.6" y="350" width="60" height="30" as="geometry" />
        </mxCell>
        <mxCell id="sG9W1Nn58OFG4seVG1Zx-48" value="Mobile number :" style="text;html=1;strokeColor=none;fillColor=none;align=center;verticalAlign=middle;whiteSpace=wrap;rounded=0;" parent="1" vertex="1">
          <mxGeometry x="1128.6" y="380" width="90" height="30" as="geometry" />
        </mxCell>
        <mxCell id="sG9W1Nn58OFG4seVG1Zx-49" value="Mail id :" style="text;html=1;strokeColor=none;fillColor=none;align=left;verticalAlign=middle;whiteSpace=wrap;rounded=0;" parent="1" vertex="1">
          <mxGeometry x="1128.6" y="410" width="60" height="30" as="geometry" />
        </mxCell>
        <mxCell id="sG9W1Nn58OFG4seVG1Zx-50" value="Crypto id :" style="text;html=1;strokeColor=none;fillColor=none;align=left;verticalAlign=middle;whiteSpace=wrap;rounded=0;" parent="1" vertex="1">
          <mxGeometry x="1128.6" y="440" width="60" height="30" as="geometry" />
        </mxCell>
        <mxCell id="sG9W1Nn58OFG4seVG1Zx-51" value="Country&amp;nbsp; :" style="text;html=1;strokeColor=none;fillColor=none;align=left;verticalAlign=middle;whiteSpace=wrap;rounded=0;" parent="1" vertex="1">
          <mxGeometry x="1128.6" y="470" width="60" height="30" as="geometry" />
        </mxCell>
        <mxCell id="sG9W1Nn58OFG4seVG1Zx-52" value="Signin" style="rounded=1;whiteSpace=wrap;html=1;fillColor=#07dfdb;gradientColor=#7de8ab;" parent="1" vertex="1">
          <mxGeometry x="1185.8999999999999" y="510" width="81.8" height="30" as="geometry" />
        </mxCell>
        <mxCell id="mrvA4lwMwm_4txeW7Z3V-1" value="Already have account&lt;br&gt;Login" style="text;html=1;strokeColor=none;fillColor=none;align=center;verticalAlign=middle;whiteSpace=wrap;rounded=0;" parent="1" vertex="1">
          <mxGeometry x="1146.8" y="540" width="165" height="30" as="geometry" />
        </mxCell>
        <mxCell id="mrvA4lwMwm_4txeW7Z3V-4" value="" style="rounded=0;whiteSpace=wrap;html=1;fillColor=#fff2cc;strokeColor=#d6b656;fontStyle=1;gradientColor=#b6dfe2;" parent="1" vertex="1">
          <mxGeometry x="761.8" y="-150" width="638.2" height="350" as="geometry" />
        </mxCell>
        <mxCell id="mrvA4lwMwm_4txeW7Z3V-5" value="" style="endArrow=none;html=1;rounded=0;exitX=1.003;exitY=0.144;exitDx=0;exitDy=0;exitPerimeter=0;entryX=-0.003;entryY=0.141;entryDx=0;entryDy=0;entryPerimeter=0;" parent="1" edge="1">
          <mxGeometry width="50" height="50" relative="1" as="geometry">
            <mxPoint x="1363.6" y="-100.03999999999996" as="sourcePoint" />
            <mxPoint x="760" y="-101.05999999999995" as="targetPoint" />
          </mxGeometry>
        </mxCell>
        <mxCell id="mrvA4lwMwm_4txeW7Z3V-6" value="" style="rounded=0;html=1;labelBackgroundColor=#96d3ee;" parent="1" vertex="1">
          <mxGeometry x="781.8" y="-140" width="80" height="30" as="geometry" />
        </mxCell>
        <mxCell id="mrvA4lwMwm_4txeW7Z3V-7" value="CryptoWall" style="text;html=1;strokeColor=none;fillColor=none;align=center;verticalAlign=middle;whiteSpace=wrap;rounded=0;fontStyle=1;labelBackgroundColor=none;" parent="1" vertex="1">
          <mxGeometry x="791.8" y="-140" width="60" height="30" as="geometry" />
        </mxCell>
        <mxCell id="mrvA4lwMwm_4txeW7Z3V-8" value="&lt;font style=&quot;font-size: 21px;&quot;&gt;Login&lt;/font&gt;" style="text;html=1;strokeColor=none;fillColor=none;align=center;verticalAlign=middle;whiteSpace=wrap;rounded=0;fontStyle=1;gradientColor=#CCE5FF;" parent="1" vertex="1">
          <mxGeometry x="1160" y="-90" width="130" height="40" as="geometry" />
        </mxCell>
        <mxCell id="mrvA4lwMwm_4txeW7Z3V-9" value="" style="endArrow=none;html=1;rounded=0;entryX=0;entryY=0;entryDx=0;entryDy=0;exitX=-0.15;exitY=1.333;exitDx=0;exitDy=0;exitPerimeter=0;" parent="1" source="mrvA4lwMwm_4txeW7Z3V-11" target="mrvA4lwMwm_4txeW7Z3V-10" edge="1">
          <mxGeometry width="50" height="50" relative="1" as="geometry">
            <mxPoint x="1120" as="sourcePoint" />
            <mxPoint x="1093.572" y="-148.95000000000005" as="targetPoint" />
          </mxGeometry>
        </mxCell>
        <mxCell id="mrvA4lwMwm_4txeW7Z3V-10" value="" style="rounded=0;whiteSpace=wrap;html=1;" parent="1" vertex="1">
          <mxGeometry x="1070" y="-150" width="330" height="50" as="geometry" />
        </mxCell>
        <mxCell id="mrvA4lwMwm_4txeW7Z3V-11" value="Home" style="text;html=1;strokeColor=none;fillColor=none;align=center;verticalAlign=middle;whiteSpace=wrap;rounded=0;" parent="1" vertex="1">
          <mxGeometry x="1085" y="-140" width="60" height="30" as="geometry" />
        </mxCell>
        <mxCell id="mrvA4lwMwm_4txeW7Z3V-12" value="login" style="text;html=1;strokeColor=none;fillColor=none;align=center;verticalAlign=middle;whiteSpace=wrap;rounded=0;" parent="1" vertex="1">
          <mxGeometry x="1130" y="-140" width="60" height="30" as="geometry" />
        </mxCell>
        <mxCell id="mrvA4lwMwm_4txeW7Z3V-13" value="Singup" style="text;html=1;strokeColor=none;fillColor=none;align=center;verticalAlign=middle;whiteSpace=wrap;rounded=0;" parent="1" vertex="1">
          <mxGeometry x="1180" y="-140" width="60" height="30" as="geometry" />
        </mxCell>
        <mxCell id="mrvA4lwMwm_4txeW7Z3V-14" value="About us" style="text;html=1;strokeColor=none;fillColor=none;align=center;verticalAlign=middle;whiteSpace=wrap;rounded=0;" parent="1" vertex="1">
          <mxGeometry x="1240" y="-140" width="60" height="30" as="geometry" />
        </mxCell>
        <mxCell id="mrvA4lwMwm_4txeW7Z3V-15" value="Contact us" style="text;html=1;strokeColor=none;fillColor=none;align=center;verticalAlign=middle;whiteSpace=wrap;rounded=0;" parent="1" vertex="1">
          <mxGeometry x="1310" y="-140" width="60" height="30" as="geometry" />
        </mxCell>
        <mxCell id="mrvA4lwMwm_4txeW7Z3V-16" value="&lt;h1 style=&quot;text-align: center; border-color: var(--border-color);&quot;&gt;&lt;u&gt;Some information&lt;/u&gt;&lt;/h1&gt;&lt;div&gt;&lt;font style=&quot;font-size: 18px;&quot;&gt;About crypto e-wallet. how to create or how to use ,where to use.&lt;/font&gt;&lt;/div&gt;" style="text;html=1;spacing=5;spacingTop=-20;whiteSpace=wrap;overflow=hidden;rounded=0;fillColor=#cdf9ee;gradientColor=#cdf5f9;align=left;" parent="1" vertex="1">
          <mxGeometry x="788.2" y="-50" width="290" height="220" as="geometry" />
        </mxCell>
        <mxCell id="mrvA4lwMwm_4txeW7Z3V-17" value="" style="rounded=0;whiteSpace=wrap;html=1;gradientColor=#e9fbfb;fillColor=#cdf2f4;strokeColor=#ffffff;" parent="1" vertex="1">
          <mxGeometry x="1100" y="-50" width="258.2" height="220" as="geometry" />
        </mxCell>
        <mxCell id="mrvA4lwMwm_4txeW7Z3V-19" value="Mobile number :" style="text;html=1;strokeColor=none;fillColor=none;align=center;verticalAlign=middle;whiteSpace=wrap;rounded=0;" parent="1" vertex="1">
          <mxGeometry x="1125" y="-30" width="90" height="30" as="geometry" />
        </mxCell>
        <mxCell id="mrvA4lwMwm_4txeW7Z3V-20" value="Mail id :" style="text;html=1;strokeColor=none;fillColor=none;align=left;verticalAlign=middle;whiteSpace=wrap;rounded=0;" parent="1" vertex="1">
          <mxGeometry x="1126.8" width="60" height="30" as="geometry" />
        </mxCell>
        <mxCell id="mrvA4lwMwm_4txeW7Z3V-21" value="Crypto id :" style="text;html=1;strokeColor=none;fillColor=none;align=left;verticalAlign=middle;whiteSpace=wrap;rounded=0;" parent="1" vertex="1">
          <mxGeometry x="1128.2" y="30" width="60" height="30" as="geometry" />
        </mxCell>
        <mxCell id="mrvA4lwMwm_4txeW7Z3V-23" value="Login" style="rounded=1;whiteSpace=wrap;html=1;fillColor=#07dfdb;gradientColor=#7de8ab;" parent="1" vertex="1">
          <mxGeometry x="1186.6" y="80" width="81.8" height="30" as="geometry" />
        </mxCell>
        <mxCell id="mrvA4lwMwm_4txeW7Z3V-33" style="edgeStyle=elbowEdgeStyle;rounded=0;orthogonalLoop=1;jettySize=auto;html=1;exitX=0.5;exitY=1;exitDx=0;exitDy=0;entryX=0.5;entryY=0;entryDx=0;entryDy=0;" parent="1" source="mrvA4lwMwm_4txeW7Z3V-26" target="sG9W1Nn58OFG4seVG1Zx-41" edge="1">
          <mxGeometry relative="1" as="geometry" />
        </mxCell>
        <mxCell id="mrvA4lwMwm_4txeW7Z3V-26" value="To create account&#xa;Sigup" style="text;align=center;labelBackgroundColor=none;" parent="1" vertex="1">
          <mxGeometry x="1164.1000000000001" y="110" width="130" height="40" as="geometry" />
        </mxCell>
        <mxCell id="mrvA4lwMwm_4txeW7Z3V-34" value="" style="shape=loopLimit;whiteSpace=wrap;html=1;size=20;" parent="1" vertex="1">
          <mxGeometry x="1018.2" y="-140" width="40" height="30" as="geometry" />
        </mxCell>
        <mxCell id="mrvA4lwMwm_4txeW7Z3V-35" value="" style="shape=loopLimit;whiteSpace=wrap;html=1;size=20;" parent="1" vertex="1">
          <mxGeometry x="1021.8" y="240" width="40" height="30" as="geometry" />
        </mxCell>
        <mxCell id="mrvA4lwMwm_4txeW7Z3V-36" value="" style="shape=loopLimit;whiteSpace=wrap;html=1;size=20;" parent="1" vertex="1">
          <mxGeometry x="340" y="50" width="40" height="30" as="geometry" />
        </mxCell>
        <mxCell id="mrvA4lwMwm_4txeW7Z3V-38" value="" style="rounded=0;whiteSpace=wrap;html=1;fillColor=#fff2cc;strokeColor=#d6b656;fontStyle=1;gradientColor=#b6dfe2;" parent="1" vertex="1">
          <mxGeometry x="1513.6" y="10" width="638.2" height="350" as="geometry" />
        </mxCell>
        <mxCell id="mrvA4lwMwm_4txeW7Z3V-39" value="" style="endArrow=none;html=1;rounded=0;exitX=1.003;exitY=0.144;exitDx=0;exitDy=0;exitPerimeter=0;entryX=-0.003;entryY=0.141;entryDx=0;entryDy=0;entryPerimeter=0;" parent="1" edge="1">
          <mxGeometry width="50" height="50" relative="1" as="geometry">
            <mxPoint x="2115.4" y="59.960000000000036" as="sourcePoint" />
            <mxPoint x="1511.8" y="58.940000000000055" as="targetPoint" />
          </mxGeometry>
        </mxCell>
        <mxCell id="mrvA4lwMwm_4txeW7Z3V-40" value="" style="rounded=0;html=1;labelBackgroundColor=#96d3ee;" parent="1" vertex="1">
          <mxGeometry x="1533.6" y="20" width="80" height="30" as="geometry" />
        </mxCell>
        <mxCell id="mrvA4lwMwm_4txeW7Z3V-41" value="CryptoWall" style="text;html=1;strokeColor=none;fillColor=none;align=center;verticalAlign=middle;whiteSpace=wrap;rounded=0;fontStyle=1;labelBackgroundColor=none;" parent="1" vertex="1">
          <mxGeometry x="1543.6" y="20" width="60" height="30" as="geometry" />
        </mxCell>
        <mxCell id="mrvA4lwMwm_4txeW7Z3V-42" value="&lt;font style=&quot;font-size: 21px;&quot;&gt;Login&lt;/font&gt;" style="text;html=1;strokeColor=none;fillColor=none;align=center;verticalAlign=middle;whiteSpace=wrap;rounded=0;fontStyle=1;gradientColor=#CCE5FF;" parent="1" vertex="1">
          <mxGeometry x="1911.8" y="70" width="130" height="40" as="geometry" />
        </mxCell>
        <mxCell id="mrvA4lwMwm_4txeW7Z3V-43" value="" style="endArrow=none;html=1;rounded=0;entryX=0;entryY=0;entryDx=0;entryDy=0;exitX=-0.15;exitY=1.333;exitDx=0;exitDy=0;exitPerimeter=0;" parent="1" source="mrvA4lwMwm_4txeW7Z3V-45" target="mrvA4lwMwm_4txeW7Z3V-44" edge="1">
          <mxGeometry width="50" height="50" relative="1" as="geometry">
            <mxPoint x="1871.8" y="160" as="sourcePoint" />
            <mxPoint x="1845.3719999999998" y="11.049999999999955" as="targetPoint" />
          </mxGeometry>
        </mxCell>
        <mxCell id="mrvA4lwMwm_4txeW7Z3V-44" value="" style="rounded=0;whiteSpace=wrap;html=1;" parent="1" vertex="1">
          <mxGeometry x="1821.8" y="10" width="330" height="50" as="geometry" />
        </mxCell>
        <mxCell id="mrvA4lwMwm_4txeW7Z3V-45" value="Home" style="text;html=1;strokeColor=none;fillColor=none;align=center;verticalAlign=middle;whiteSpace=wrap;rounded=0;" parent="1" vertex="1">
          <mxGeometry x="1836.8" y="20" width="60" height="30" as="geometry" />
        </mxCell>
        <mxCell id="mrvA4lwMwm_4txeW7Z3V-46" value="login" style="text;html=1;strokeColor=none;fillColor=none;align=center;verticalAlign=middle;whiteSpace=wrap;rounded=0;" parent="1" vertex="1">
          <mxGeometry x="1881.8" y="20" width="60" height="30" as="geometry" />
        </mxCell>
        <mxCell id="mrvA4lwMwm_4txeW7Z3V-47" value="Singup" style="text;html=1;strokeColor=none;fillColor=none;align=center;verticalAlign=middle;whiteSpace=wrap;rounded=0;" parent="1" vertex="1">
          <mxGeometry x="1931.8" y="20" width="60" height="30" as="geometry" />
        </mxCell>
        <mxCell id="mrvA4lwMwm_4txeW7Z3V-48" value="About us" style="text;html=1;strokeColor=none;fillColor=none;align=center;verticalAlign=middle;whiteSpace=wrap;rounded=0;" parent="1" vertex="1">
          <mxGeometry x="1991.8" y="20" width="60" height="30" as="geometry" />
        </mxCell>
        <mxCell id="mrvA4lwMwm_4txeW7Z3V-49" value="Contact us" style="text;html=1;strokeColor=none;fillColor=none;align=center;verticalAlign=middle;whiteSpace=wrap;rounded=0;" parent="1" vertex="1">
          <mxGeometry x="2061.8" y="20" width="60" height="30" as="geometry" />
        </mxCell>
        <mxCell id="mrvA4lwMwm_4txeW7Z3V-50" value="&lt;h1 style=&quot;text-align: center; border-color: var(--border-color);&quot;&gt;&lt;u&gt;Some information&lt;/u&gt;&lt;/h1&gt;&lt;div&gt;&lt;font style=&quot;font-size: 18px;&quot;&gt;About crypto e-wallet. how to create or how to use ,where to use.&lt;/font&gt;&lt;/div&gt;" style="text;html=1;spacing=5;spacingTop=-20;whiteSpace=wrap;overflow=hidden;rounded=0;fillColor=#cdf9ee;gradientColor=#cdf5f9;align=left;" parent="1" vertex="1">
          <mxGeometry x="1540" y="110" width="290" height="220" as="geometry" />
        </mxCell>
        <mxCell id="mrvA4lwMwm_4txeW7Z3V-51" value="" style="rounded=0;whiteSpace=wrap;html=1;gradientColor=#e9fbfb;fillColor=#cdf2f4;strokeColor=#ffffff;" parent="1" vertex="1">
          <mxGeometry x="1851.8" y="110" width="258.2" height="220" as="geometry" />
        </mxCell>
        <mxCell id="mrvA4lwMwm_4txeW7Z3V-52" value="Mobile number :" style="text;html=1;strokeColor=none;fillColor=none;align=center;verticalAlign=middle;whiteSpace=wrap;rounded=0;" parent="1" vertex="1">
          <mxGeometry x="1876.8" y="130" width="90" height="30" as="geometry" />
        </mxCell>
        <mxCell id="mrvA4lwMwm_4txeW7Z3V-53" value="Mail id :" style="text;html=1;strokeColor=none;fillColor=none;align=left;verticalAlign=middle;whiteSpace=wrap;rounded=0;" parent="1" vertex="1">
          <mxGeometry x="1878.6" y="160" width="60" height="30" as="geometry" />
        </mxCell>
        <mxCell id="mrvA4lwMwm_4txeW7Z3V-54" value="Crypto id :" style="text;html=1;strokeColor=none;fillColor=none;align=left;verticalAlign=middle;whiteSpace=wrap;rounded=0;" parent="1" vertex="1">
          <mxGeometry x="1880" y="190" width="60" height="30" as="geometry" />
        </mxCell>
        <mxCell id="mrvA4lwMwm_4txeW7Z3V-55" value="Login" style="rounded=1;whiteSpace=wrap;html=1;fillColor=#07dfdb;gradientColor=#7de8ab;" parent="1" vertex="1">
          <mxGeometry x="1938.3999999999999" y="240" width="81.8" height="30" as="geometry" />
        </mxCell>
        <mxCell id="mrvA4lwMwm_4txeW7Z3V-56" value="To create account&#xa;Sigup" style="text;align=center;labelBackgroundColor=none;" parent="1" vertex="1">
          <mxGeometry x="1915.9" y="270" width="130" height="40" as="geometry" />
        </mxCell>
        <mxCell id="mrvA4lwMwm_4txeW7Z3V-57" value="" style="shape=loopLimit;whiteSpace=wrap;html=1;size=20;" parent="1" vertex="1">
          <mxGeometry x="1770" y="20" width="40" height="30" as="geometry" />
        </mxCell>
        <mxCell id="d2HV5iW2DPcCT9V2YL1b-1" value="" style="rounded=0;whiteSpace=wrap;html=1;fillColor=#fff2cc;strokeColor=#d6b656;fontStyle=1;gradientColor=#b6dfe2;" parent="1" vertex="1">
          <mxGeometry x="2281.8" y="-190" width="638.2" height="350" as="geometry" />
        </mxCell>
        <mxCell id="d2HV5iW2DPcCT9V2YL1b-2" value="" style="endArrow=none;html=1;rounded=0;exitX=1.003;exitY=0.144;exitDx=0;exitDy=0;exitPerimeter=0;entryX=-0.003;entryY=0.141;entryDx=0;entryDy=0;entryPerimeter=0;" parent="1" edge="1">
          <mxGeometry width="50" height="50" relative="1" as="geometry">
            <mxPoint x="2883.6" y="-140.03999999999996" as="sourcePoint" />
            <mxPoint x="2280" y="-141.05999999999995" as="targetPoint" />
          </mxGeometry>
        </mxCell>
        <mxCell id="d2HV5iW2DPcCT9V2YL1b-3" value="" style="rounded=0;html=1;labelBackgroundColor=#96d3ee;" parent="1" vertex="1">
          <mxGeometry x="2301.8" y="-180" width="80" height="30" as="geometry" />
        </mxCell>
        <mxCell id="d2HV5iW2DPcCT9V2YL1b-4" value="CryptoWall" style="text;html=1;strokeColor=none;fillColor=none;align=center;verticalAlign=middle;whiteSpace=wrap;rounded=0;fontStyle=1;labelBackgroundColor=none;" parent="1" vertex="1">
          <mxGeometry x="2311.8" y="-180" width="60" height="30" as="geometry" />
        </mxCell>
        <mxCell id="d2HV5iW2DPcCT9V2YL1b-6" value="" style="endArrow=none;html=1;rounded=0;entryX=0;entryY=0;entryDx=0;entryDy=0;exitX=-0.15;exitY=1.333;exitDx=0;exitDy=0;exitPerimeter=0;" parent="1" source="d2HV5iW2DPcCT9V2YL1b-8" target="d2HV5iW2DPcCT9V2YL1b-7" edge="1">
          <mxGeometry width="50" height="50" relative="1" as="geometry">
            <mxPoint x="2640" y="-40" as="sourcePoint" />
            <mxPoint x="2613.572" y="-188.95000000000005" as="targetPoint" />
          </mxGeometry>
        </mxCell>
        <mxCell id="d2HV5iW2DPcCT9V2YL1b-7" value="" style="rounded=0;whiteSpace=wrap;html=1;" parent="1" vertex="1">
          <mxGeometry x="2590" y="-190" width="330" height="50" as="geometry" />
        </mxCell>
        <mxCell id="d2HV5iW2DPcCT9V2YL1b-8" value="Home" style="text;html=1;strokeColor=none;fillColor=none;align=center;verticalAlign=middle;whiteSpace=wrap;rounded=0;" parent="1" vertex="1">
          <mxGeometry x="2605" y="-180" width="60" height="30" as="geometry" />
        </mxCell>
        <mxCell id="d2HV5iW2DPcCT9V2YL1b-9" value="login" style="text;html=1;strokeColor=none;fillColor=none;align=center;verticalAlign=middle;whiteSpace=wrap;rounded=0;" parent="1" vertex="1">
          <mxGeometry x="2650" y="-180" width="60" height="30" as="geometry" />
        </mxCell>
        <mxCell id="d2HV5iW2DPcCT9V2YL1b-10" value="Singup" style="text;html=1;strokeColor=none;fillColor=none;align=center;verticalAlign=middle;whiteSpace=wrap;rounded=0;" parent="1" vertex="1">
          <mxGeometry x="2700" y="-180" width="60" height="30" as="geometry" />
        </mxCell>
        <mxCell id="d2HV5iW2DPcCT9V2YL1b-11" value="About us" style="text;html=1;strokeColor=none;fillColor=none;align=center;verticalAlign=middle;whiteSpace=wrap;rounded=0;" parent="1" vertex="1">
          <mxGeometry x="2760" y="-180" width="60" height="30" as="geometry" />
        </mxCell>
        <mxCell id="d2HV5iW2DPcCT9V2YL1b-12" value="Contact us" style="text;html=1;strokeColor=none;fillColor=none;align=center;verticalAlign=middle;whiteSpace=wrap;rounded=0;" parent="1" vertex="1">
          <mxGeometry x="2830" y="-180" width="60" height="30" as="geometry" />
        </mxCell>
        <mxCell id="d2HV5iW2DPcCT9V2YL1b-13" value="&lt;h1 style=&quot;text-align: center; border-color: var(--border-color);&quot;&gt;&lt;br&gt;&lt;/h1&gt;" style="text;html=1;spacing=5;spacingTop=-20;whiteSpace=wrap;overflow=hidden;rounded=0;fillColor=#cdf9ee;gradientColor=#cdf5f9;align=left;" parent="1" vertex="1">
          <mxGeometry x="2301.8" y="-110" width="290" height="220" as="geometry" />
        </mxCell>
        <mxCell id="d2HV5iW2DPcCT9V2YL1b-14" value="" style="rounded=0;whiteSpace=wrap;html=1;gradientColor=#e9fbfb;fillColor=#cdf2f4;strokeColor=#ffffff;" parent="1" vertex="1">
          <mxGeometry x="2616.8" y="-108" width="258.2" height="220" as="geometry" />
        </mxCell>
        <mxCell id="ETBMIqMaUtcxecibXrH7-80" style="edgeStyle=orthogonalEdgeStyle;rounded=0;orthogonalLoop=1;jettySize=auto;html=1;exitX=0.5;exitY=1;exitDx=0;exitDy=0;entryX=0;entryY=0.5;entryDx=0;entryDy=0;" edge="1" parent="1" source="d2HV5iW2DPcCT9V2YL1b-18" target="ETBMIqMaUtcxecibXrH7-33">
          <mxGeometry relative="1" as="geometry" />
        </mxCell>
        <mxCell id="d2HV5iW2DPcCT9V2YL1b-18" value="Transfer" style="rounded=1;whiteSpace=wrap;html=1;fillColor=#07dfdb;gradientColor=#7de8ab;" parent="1" vertex="1">
          <mxGeometry x="2705" y="70" width="81.8" height="30" as="geometry" />
        </mxCell>
        <mxCell id="d2HV5iW2DPcCT9V2YL1b-20" value="" style="shape=loopLimit;whiteSpace=wrap;html=1;size=20;" parent="1" vertex="1">
          <mxGeometry x="2538.2" y="-180" width="40" height="30" as="geometry" />
        </mxCell>
        <mxCell id="d2HV5iW2DPcCT9V2YL1b-21" value="" style="endArrow=none;html=1;rounded=0;exitX=-0.006;exitY=0.168;exitDx=0;exitDy=0;exitPerimeter=0;" parent="1" source="d2HV5iW2DPcCT9V2YL1b-13" edge="1">
          <mxGeometry width="50" height="50" relative="1" as="geometry">
            <mxPoint x="2560" y="-30" as="sourcePoint" />
            <mxPoint x="2590" y="-73" as="targetPoint" />
          </mxGeometry>
        </mxCell>
        <mxCell id="d2HV5iW2DPcCT9V2YL1b-22" value="" style="endArrow=none;html=1;rounded=0;exitX=0.009;exitY=0.164;exitDx=0;exitDy=0;exitPerimeter=0;entryX=1;entryY=0.168;entryDx=0;entryDy=0;entryPerimeter=0;" parent="1" source="d2HV5iW2DPcCT9V2YL1b-14" target="d2HV5iW2DPcCT9V2YL1b-14" edge="1">
          <mxGeometry width="50" height="50" relative="1" as="geometry">
            <mxPoint x="2560" y="-30" as="sourcePoint" />
            <mxPoint x="2870" y="-74" as="targetPoint" />
          </mxGeometry>
        </mxCell>
        <mxCell id="d2HV5iW2DPcCT9V2YL1b-23" value="&lt;b&gt;&lt;font style=&quot;font-size: 16px;&quot;&gt;Wallet&lt;/font&gt;&lt;/b&gt;" style="text;html=1;strokeColor=none;fillColor=none;align=left;verticalAlign=middle;whiteSpace=wrap;rounded=0;" parent="1" vertex="1">
          <mxGeometry x="2412.7" y="-108" width="68.2" height="30" as="geometry" />
        </mxCell>
        <mxCell id="d2HV5iW2DPcCT9V2YL1b-25" value="&lt;b&gt;&lt;font style=&quot;font-size: 16px;&quot;&gt;Transfer to any&lt;/font&gt;&lt;/b&gt;" style="text;html=1;strokeColor=none;fillColor=none;align=center;verticalAlign=middle;whiteSpace=wrap;rounded=0;" parent="1" vertex="1">
          <mxGeometry x="2620" y="-108" width="250" height="30" as="geometry" />
        </mxCell>
        <mxCell id="d2HV5iW2DPcCT9V2YL1b-28" value="CryptoId :" style="text;html=1;strokeColor=none;fillColor=none;align=center;verticalAlign=middle;whiteSpace=wrap;rounded=0;" parent="1" vertex="1">
          <mxGeometry x="2631.8" y="-50" width="78.2" height="30" as="geometry" />
        </mxCell>
        <mxCell id="d2HV5iW2DPcCT9V2YL1b-31" value="Network :" style="text;html=1;strokeColor=none;fillColor=none;align=center;verticalAlign=middle;whiteSpace=wrap;rounded=0;" parent="1" vertex="1">
          <mxGeometry x="2640.9" y="-20" width="60" height="30" as="geometry" />
        </mxCell>
        <mxCell id="d2HV5iW2DPcCT9V2YL1b-32" value="CryptoId :" style="text;html=1;strokeColor=none;fillColor=none;align=center;verticalAlign=middle;whiteSpace=wrap;rounded=0;" parent="1" vertex="1">
          <mxGeometry x="2321.8" y="-50" width="60" height="30" as="geometry" />
        </mxCell>
        <mxCell id="d2HV5iW2DPcCT9V2YL1b-33" value="Pin :" style="text;html=1;strokeColor=none;fillColor=none;align=center;verticalAlign=middle;whiteSpace=wrap;rounded=0;" parent="1" vertex="1">
          <mxGeometry x="2311.8" y="-20" width="60" height="30" as="geometry" />
        </mxCell>
        <mxCell id="ETBMIqMaUtcxecibXrH7-32" style="edgeStyle=orthogonalEdgeStyle;rounded=0;orthogonalLoop=1;jettySize=auto;html=1;exitX=0.5;exitY=1;exitDx=0;exitDy=0;" edge="1" parent="1" source="d2HV5iW2DPcCT9V2YL1b-34" target="ETBMIqMaUtcxecibXrH7-1">
          <mxGeometry relative="1" as="geometry">
            <Array as="points">
              <mxPoint x="2447" y="180" />
              <mxPoint x="2611" y="180" />
            </Array>
          </mxGeometry>
        </mxCell>
        <mxCell id="d2HV5iW2DPcCT9V2YL1b-34" value="Show" style="rounded=1;whiteSpace=wrap;html=1;fillColor=#07dfdb;gradientColor=#7de8ab;" parent="1" vertex="1">
          <mxGeometry x="2405.8999999999996" y="60" width="81.8" height="30" as="geometry" />
        </mxCell>
        <mxCell id="d2HV5iW2DPcCT9V2YL1b-35" value="" style="rounded=0;whiteSpace=wrap;html=1;fillColor=#fff2cc;strokeColor=#d6b656;fontStyle=1;gradientColor=#b6dfe2;" parent="1" vertex="1">
          <mxGeometry x="1511.8" y="-430" width="638.2" height="350" as="geometry" />
        </mxCell>
        <mxCell id="d2HV5iW2DPcCT9V2YL1b-36" value="" style="endArrow=none;html=1;rounded=0;exitX=1.003;exitY=0.144;exitDx=0;exitDy=0;exitPerimeter=0;entryX=-0.003;entryY=0.141;entryDx=0;entryDy=0;entryPerimeter=0;" parent="1" edge="1">
          <mxGeometry width="50" height="50" relative="1" as="geometry">
            <mxPoint x="2113.6" y="-380.03999999999996" as="sourcePoint" />
            <mxPoint x="1510" y="-381.05999999999995" as="targetPoint" />
          </mxGeometry>
        </mxCell>
        <mxCell id="d2HV5iW2DPcCT9V2YL1b-37" value="" style="rounded=0;html=1;labelBackgroundColor=#96d3ee;" parent="1" vertex="1">
          <mxGeometry x="1531.8" y="-420" width="80" height="30" as="geometry" />
        </mxCell>
        <mxCell id="d2HV5iW2DPcCT9V2YL1b-38" value="CryptoWall" style="text;html=1;strokeColor=none;fillColor=none;align=center;verticalAlign=middle;whiteSpace=wrap;rounded=0;fontStyle=1;labelBackgroundColor=none;" parent="1" vertex="1">
          <mxGeometry x="1541.8" y="-420" width="60" height="30" as="geometry" />
        </mxCell>
        <mxCell id="d2HV5iW2DPcCT9V2YL1b-39" value="&lt;font style=&quot;font-size: 21px;&quot;&gt;Login&lt;/font&gt;" style="text;html=1;strokeColor=none;fillColor=none;align=center;verticalAlign=middle;whiteSpace=wrap;rounded=0;fontStyle=1;gradientColor=#CCE5FF;" parent="1" vertex="1">
          <mxGeometry x="1910" y="-370" width="130" height="40" as="geometry" />
        </mxCell>
        <mxCell id="d2HV5iW2DPcCT9V2YL1b-40" value="" style="endArrow=none;html=1;rounded=0;entryX=0;entryY=0;entryDx=0;entryDy=0;exitX=-0.15;exitY=1.333;exitDx=0;exitDy=0;exitPerimeter=0;" parent="1" source="d2HV5iW2DPcCT9V2YL1b-42" target="d2HV5iW2DPcCT9V2YL1b-41" edge="1">
          <mxGeometry width="50" height="50" relative="1" as="geometry">
            <mxPoint x="1870" y="-280" as="sourcePoint" />
            <mxPoint x="1843.572" y="-428.95000000000005" as="targetPoint" />
          </mxGeometry>
        </mxCell>
        <mxCell id="d2HV5iW2DPcCT9V2YL1b-41" value="" style="rounded=0;whiteSpace=wrap;html=1;" parent="1" vertex="1">
          <mxGeometry x="1820" y="-430" width="330" height="50" as="geometry" />
        </mxCell>
        <mxCell id="d2HV5iW2DPcCT9V2YL1b-42" value="Home" style="text;html=1;strokeColor=none;fillColor=none;align=center;verticalAlign=middle;whiteSpace=wrap;rounded=0;" parent="1" vertex="1">
          <mxGeometry x="1835" y="-420" width="60" height="30" as="geometry" />
        </mxCell>
        <mxCell id="d2HV5iW2DPcCT9V2YL1b-43" value="login" style="text;html=1;strokeColor=none;fillColor=none;align=center;verticalAlign=middle;whiteSpace=wrap;rounded=0;" parent="1" vertex="1">
          <mxGeometry x="1880" y="-420" width="60" height="30" as="geometry" />
        </mxCell>
        <mxCell id="d2HV5iW2DPcCT9V2YL1b-44" value="Singup" style="text;html=1;strokeColor=none;fillColor=none;align=center;verticalAlign=middle;whiteSpace=wrap;rounded=0;" parent="1" vertex="1">
          <mxGeometry x="1930" y="-420" width="60" height="30" as="geometry" />
        </mxCell>
        <mxCell id="d2HV5iW2DPcCT9V2YL1b-45" value="About us" style="text;html=1;strokeColor=none;fillColor=none;align=center;verticalAlign=middle;whiteSpace=wrap;rounded=0;" parent="1" vertex="1">
          <mxGeometry x="1990" y="-420" width="60" height="30" as="geometry" />
        </mxCell>
        <mxCell id="d2HV5iW2DPcCT9V2YL1b-46" value="Contact us" style="text;html=1;strokeColor=none;fillColor=none;align=center;verticalAlign=middle;whiteSpace=wrap;rounded=0;" parent="1" vertex="1">
          <mxGeometry x="2060" y="-420" width="60" height="30" as="geometry" />
        </mxCell>
        <mxCell id="d2HV5iW2DPcCT9V2YL1b-47" value="&lt;h1 style=&quot;text-align: center; border-color: var(--border-color);&quot;&gt;&lt;u&gt;Some information&lt;/u&gt;&lt;/h1&gt;&lt;div&gt;&lt;font style=&quot;font-size: 18px;&quot;&gt;About crypto e-wallet. how to create or how to use ,where to use.&lt;/font&gt;&lt;/div&gt;" style="text;html=1;spacing=5;spacingTop=-20;whiteSpace=wrap;overflow=hidden;rounded=0;fillColor=#cdf9ee;gradientColor=#cdf5f9;align=left;" parent="1" vertex="1">
          <mxGeometry x="1538.2" y="-330" width="290" height="220" as="geometry" />
        </mxCell>
        <mxCell id="d2HV5iW2DPcCT9V2YL1b-48" value="" style="rounded=0;whiteSpace=wrap;html=1;gradientColor=#e9fbfb;fillColor=#cdf2f4;strokeColor=#ffffff;" parent="1" vertex="1">
          <mxGeometry x="1850" y="-330" width="258.2" height="220" as="geometry" />
        </mxCell>
        <mxCell id="d2HV5iW2DPcCT9V2YL1b-49" value="Mobile number :" style="text;html=1;strokeColor=none;fillColor=none;align=center;verticalAlign=middle;whiteSpace=wrap;rounded=0;" parent="1" vertex="1">
          <mxGeometry x="1875" y="-310" width="90" height="30" as="geometry" />
        </mxCell>
        <mxCell id="d2HV5iW2DPcCT9V2YL1b-50" value="Mail id :" style="text;html=1;strokeColor=none;fillColor=none;align=left;verticalAlign=middle;whiteSpace=wrap;rounded=0;" parent="1" vertex="1">
          <mxGeometry x="1876.8" y="-280" width="60" height="30" as="geometry" />
        </mxCell>
        <mxCell id="d2HV5iW2DPcCT9V2YL1b-51" value="Crypto id :" style="text;html=1;strokeColor=none;fillColor=none;align=left;verticalAlign=middle;whiteSpace=wrap;rounded=0;" parent="1" vertex="1">
          <mxGeometry x="1878.2" y="-250" width="60" height="30" as="geometry" />
        </mxCell>
        <mxCell id="ETBMIqMaUtcxecibXrH7-81" style="edgeStyle=orthogonalEdgeStyle;rounded=0;orthogonalLoop=1;jettySize=auto;html=1;exitX=1;exitY=0.5;exitDx=0;exitDy=0;" edge="1" parent="1" source="d2HV5iW2DPcCT9V2YL1b-52" target="d2HV5iW2DPcCT9V2YL1b-1">
          <mxGeometry relative="1" as="geometry">
            <Array as="points">
              <mxPoint x="2200" y="-165" />
              <mxPoint x="2200" y="-15" />
            </Array>
          </mxGeometry>
        </mxCell>
        <mxCell id="d2HV5iW2DPcCT9V2YL1b-52" value="Login" style="rounded=1;whiteSpace=wrap;html=1;fillColor=#07dfdb;gradientColor=#7de8ab;" parent="1" vertex="1">
          <mxGeometry x="1938.1999999999998" y="-180" width="81.8" height="30" as="geometry" />
        </mxCell>
        <mxCell id="d2HV5iW2DPcCT9V2YL1b-53" value="To create account&#xa;Sigup" style="text;align=center;labelBackgroundColor=none;" parent="1" vertex="1">
          <mxGeometry x="1914.1000000000001" y="-150" width="130" height="40" as="geometry" />
        </mxCell>
        <mxCell id="d2HV5iW2DPcCT9V2YL1b-54" value="" style="shape=loopLimit;whiteSpace=wrap;html=1;size=20;" parent="1" vertex="1">
          <mxGeometry x="1768.2" y="-420" width="40" height="30" as="geometry" />
        </mxCell>
        <mxCell id="d2HV5iW2DPcCT9V2YL1b-55" value="Otp :" style="text;html=1;strokeColor=none;fillColor=none;align=left;verticalAlign=middle;whiteSpace=wrap;rounded=0;" parent="1" vertex="1">
          <mxGeometry x="1876.8" y="-220" width="60" height="30" as="geometry" />
        </mxCell>
        <mxCell id="d2HV5iW2DPcCT9V2YL1b-57" style="edgeStyle=orthogonalEdgeStyle;rounded=0;orthogonalLoop=1;jettySize=auto;html=1;exitX=1;exitY=0.5;exitDx=0;exitDy=0;entryX=0.75;entryY=0;entryDx=0;entryDy=0;" parent="1" source="mrvA4lwMwm_4txeW7Z3V-55" target="d2HV5iW2DPcCT9V2YL1b-53" edge="1">
          <mxGeometry relative="1" as="geometry">
            <mxPoint x="2180" y="-208" as="targetPoint" />
            <Array as="points">
              <mxPoint x="2170" y="255" />
              <mxPoint x="2170" y="-60" />
              <mxPoint x="2012" y="-60" />
            </Array>
          </mxGeometry>
        </mxCell>
        <mxCell id="d2HV5iW2DPcCT9V2YL1b-60" style="edgeStyle=entityRelationEdgeStyle;rounded=0;orthogonalLoop=1;jettySize=auto;html=1;exitX=1;exitY=0.5;exitDx=0;exitDy=0;entryX=-0.003;entryY=0.543;entryDx=0;entryDy=0;entryPerimeter=0;" parent="1" source="mrvA4lwMwm_4txeW7Z3V-23" target="d2HV5iW2DPcCT9V2YL1b-35" edge="1">
          <mxGeometry relative="1" as="geometry" />
        </mxCell>
        <mxCell id="d2HV5iW2DPcCT9V2YL1b-85" value="Amount :" style="text;html=1;strokeColor=none;fillColor=none;align=center;verticalAlign=middle;whiteSpace=wrap;rounded=0;" parent="1" vertex="1">
          <mxGeometry x="2645" y="10" width="60" height="30" as="geometry" />
        </mxCell>
        <mxCell id="ETBMIqMaUtcxecibXrH7-1" value="" style="rounded=0;whiteSpace=wrap;html=1;fillColor=#fff2cc;strokeColor=#d6b656;fontStyle=1;gradientColor=#b6dfe2;" vertex="1" parent="1">
          <mxGeometry x="2281.8" y="230" width="638.2" height="350" as="geometry" />
        </mxCell>
        <mxCell id="ETBMIqMaUtcxecibXrH7-2" value="" style="endArrow=none;html=1;rounded=0;exitX=1.003;exitY=0.144;exitDx=0;exitDy=0;exitPerimeter=0;entryX=-0.003;entryY=0.141;entryDx=0;entryDy=0;entryPerimeter=0;" edge="1" parent="1">
          <mxGeometry width="50" height="50" relative="1" as="geometry">
            <mxPoint x="2883.6" y="279.96000000000004" as="sourcePoint" />
            <mxPoint x="2280" y="278.94000000000005" as="targetPoint" />
          </mxGeometry>
        </mxCell>
        <mxCell id="ETBMIqMaUtcxecibXrH7-3" value="" style="rounded=0;html=1;labelBackgroundColor=#96d3ee;" vertex="1" parent="1">
          <mxGeometry x="2301.8" y="240" width="80" height="30" as="geometry" />
        </mxCell>
        <mxCell id="ETBMIqMaUtcxecibXrH7-4" value="CryptoWall" style="text;html=1;strokeColor=none;fillColor=none;align=center;verticalAlign=middle;whiteSpace=wrap;rounded=0;fontStyle=1;labelBackgroundColor=none;" vertex="1" parent="1">
          <mxGeometry x="2311.8" y="240" width="60" height="30" as="geometry" />
        </mxCell>
        <mxCell id="ETBMIqMaUtcxecibXrH7-5" value="" style="endArrow=none;html=1;rounded=0;entryX=0;entryY=0;entryDx=0;entryDy=0;exitX=-0.15;exitY=1.333;exitDx=0;exitDy=0;exitPerimeter=0;" edge="1" parent="1" source="ETBMIqMaUtcxecibXrH7-7" target="ETBMIqMaUtcxecibXrH7-6">
          <mxGeometry width="50" height="50" relative="1" as="geometry">
            <mxPoint x="2640" y="380" as="sourcePoint" />
            <mxPoint x="2613.572" y="231.04999999999995" as="targetPoint" />
          </mxGeometry>
        </mxCell>
        <mxCell id="ETBMIqMaUtcxecibXrH7-6" value="" style="rounded=0;whiteSpace=wrap;html=1;" vertex="1" parent="1">
          <mxGeometry x="2590" y="230" width="330" height="50" as="geometry" />
        </mxCell>
        <mxCell id="ETBMIqMaUtcxecibXrH7-7" value="Home" style="text;html=1;strokeColor=none;fillColor=none;align=center;verticalAlign=middle;whiteSpace=wrap;rounded=0;" vertex="1" parent="1">
          <mxGeometry x="2605" y="240" width="60" height="30" as="geometry" />
        </mxCell>
        <mxCell id="ETBMIqMaUtcxecibXrH7-8" value="login" style="text;html=1;strokeColor=none;fillColor=none;align=center;verticalAlign=middle;whiteSpace=wrap;rounded=0;" vertex="1" parent="1">
          <mxGeometry x="2650" y="240" width="60" height="30" as="geometry" />
        </mxCell>
        <mxCell id="ETBMIqMaUtcxecibXrH7-9" value="Singup" style="text;html=1;strokeColor=none;fillColor=none;align=center;verticalAlign=middle;whiteSpace=wrap;rounded=0;" vertex="1" parent="1">
          <mxGeometry x="2700" y="240" width="60" height="30" as="geometry" />
        </mxCell>
        <mxCell id="ETBMIqMaUtcxecibXrH7-10" value="About us" style="text;html=1;strokeColor=none;fillColor=none;align=center;verticalAlign=middle;whiteSpace=wrap;rounded=0;" vertex="1" parent="1">
          <mxGeometry x="2760" y="240" width="60" height="30" as="geometry" />
        </mxCell>
        <mxCell id="ETBMIqMaUtcxecibXrH7-11" value="Contact us" style="text;html=1;strokeColor=none;fillColor=none;align=center;verticalAlign=middle;whiteSpace=wrap;rounded=0;" vertex="1" parent="1">
          <mxGeometry x="2830" y="240" width="60" height="30" as="geometry" />
        </mxCell>
        <mxCell id="ETBMIqMaUtcxecibXrH7-12" value="&lt;h1 style=&quot;text-align: center; border-color: var(--border-color);&quot;&gt;&lt;br&gt;&lt;/h1&gt;" style="text;html=1;spacing=5;spacingTop=-20;whiteSpace=wrap;overflow=hidden;rounded=0;fillColor=#cdf9ee;gradientColor=#cdf5f9;align=left;" vertex="1" parent="1">
          <mxGeometry x="2301.8" y="310" width="290" height="220" as="geometry" />
        </mxCell>
        <mxCell id="ETBMIqMaUtcxecibXrH7-13" value="" style="rounded=0;whiteSpace=wrap;html=1;gradientColor=#e9fbfb;fillColor=#cdf2f4;strokeColor=#ffffff;" vertex="1" parent="1">
          <mxGeometry x="2616.8" y="312" width="258.2" height="220" as="geometry" />
        </mxCell>
        <mxCell id="ETBMIqMaUtcxecibXrH7-14" value="Transfer" style="rounded=1;whiteSpace=wrap;html=1;fillColor=#07dfdb;gradientColor=#7de8ab;" vertex="1" parent="1">
          <mxGeometry x="2705" y="490" width="81.8" height="30" as="geometry" />
        </mxCell>
        <mxCell id="ETBMIqMaUtcxecibXrH7-15" value="" style="shape=loopLimit;whiteSpace=wrap;html=1;size=20;" vertex="1" parent="1">
          <mxGeometry x="2538.2" y="240" width="40" height="30" as="geometry" />
        </mxCell>
        <mxCell id="ETBMIqMaUtcxecibXrH7-16" value="" style="endArrow=none;html=1;rounded=0;exitX=-0.006;exitY=0.168;exitDx=0;exitDy=0;exitPerimeter=0;" edge="1" parent="1" source="ETBMIqMaUtcxecibXrH7-12">
          <mxGeometry width="50" height="50" relative="1" as="geometry">
            <mxPoint x="2560" y="390" as="sourcePoint" />
            <mxPoint x="2590" y="347" as="targetPoint" />
          </mxGeometry>
        </mxCell>
        <mxCell id="ETBMIqMaUtcxecibXrH7-17" value="" style="endArrow=none;html=1;rounded=0;exitX=0.009;exitY=0.164;exitDx=0;exitDy=0;exitPerimeter=0;entryX=1;entryY=0.168;entryDx=0;entryDy=0;entryPerimeter=0;" edge="1" parent="1" source="ETBMIqMaUtcxecibXrH7-13" target="ETBMIqMaUtcxecibXrH7-13">
          <mxGeometry width="50" height="50" relative="1" as="geometry">
            <mxPoint x="2560" y="390" as="sourcePoint" />
            <mxPoint x="2870" y="346" as="targetPoint" />
          </mxGeometry>
        </mxCell>
        <mxCell id="ETBMIqMaUtcxecibXrH7-18" value="&lt;b&gt;&lt;font style=&quot;font-size: 16px;&quot;&gt;Wallet&lt;/font&gt;&lt;/b&gt;" style="text;html=1;strokeColor=none;fillColor=none;align=left;verticalAlign=middle;whiteSpace=wrap;rounded=0;" vertex="1" parent="1">
          <mxGeometry x="2412.7" y="312" width="68.2" height="30" as="geometry" />
        </mxCell>
        <mxCell id="ETBMIqMaUtcxecibXrH7-19" value="&lt;b&gt;&lt;font style=&quot;font-size: 16px;&quot;&gt;Transfer to any&lt;/font&gt;&lt;/b&gt;" style="text;html=1;strokeColor=none;fillColor=none;align=center;verticalAlign=middle;whiteSpace=wrap;rounded=0;" vertex="1" parent="1">
          <mxGeometry x="2620" y="312" width="250" height="30" as="geometry" />
        </mxCell>
        <mxCell id="ETBMIqMaUtcxecibXrH7-20" value="CryptoId :" style="text;html=1;strokeColor=none;fillColor=none;align=center;verticalAlign=middle;whiteSpace=wrap;rounded=0;" vertex="1" parent="1">
          <mxGeometry x="2631.8" y="370" width="78.2" height="30" as="geometry" />
        </mxCell>
        <mxCell id="ETBMIqMaUtcxecibXrH7-21" value="Network :" style="text;html=1;strokeColor=none;fillColor=none;align=center;verticalAlign=middle;whiteSpace=wrap;rounded=0;" vertex="1" parent="1">
          <mxGeometry x="2640.9" y="400" width="60" height="30" as="geometry" />
        </mxCell>
        <mxCell id="ETBMIqMaUtcxecibXrH7-22" value="CryptoId :" style="text;html=1;strokeColor=none;fillColor=none;align=center;verticalAlign=middle;whiteSpace=wrap;rounded=0;" vertex="1" parent="1">
          <mxGeometry x="2321.8" y="370" width="60" height="30" as="geometry" />
        </mxCell>
        <mxCell id="ETBMIqMaUtcxecibXrH7-23" value="Pin :" style="text;html=1;strokeColor=none;fillColor=none;align=center;verticalAlign=middle;whiteSpace=wrap;rounded=0;" vertex="1" parent="1">
          <mxGeometry x="2311.8" y="400" width="60" height="30" as="geometry" />
        </mxCell>
        <mxCell id="ETBMIqMaUtcxecibXrH7-24" value="Show" style="rounded=1;whiteSpace=wrap;html=1;fillColor=#07dfdb;gradientColor=#7de8ab;" vertex="1" parent="1">
          <mxGeometry x="2405.8999999999996" y="480" width="81.8" height="30" as="geometry" />
        </mxCell>
        <mxCell id="ETBMIqMaUtcxecibXrH7-25" value="Amount :" style="text;html=1;strokeColor=none;fillColor=none;align=center;verticalAlign=middle;whiteSpace=wrap;rounded=0;" vertex="1" parent="1">
          <mxGeometry x="2645" y="430" width="60" height="30" as="geometry" />
        </mxCell>
        <mxCell id="ETBMIqMaUtcxecibXrH7-26" value="Crypto Type" style="text;strokeColor=none;fillColor=none;align=center;verticalAlign=middle;rounded=0;labelBackgroundColor=#1ebcf1;spacing=3;spacingTop=0;spacingBottom=0;textOpacity=80;" vertex="1" parent="1">
          <mxGeometry x="2780" y="430" width="90" height="30" as="geometry" />
        </mxCell>
        <mxCell id="ETBMIqMaUtcxecibXrH7-27" value="*********" style="text;strokeColor=none;fillColor=none;align=center;verticalAlign=middle;rounded=0;labelBackgroundColor=#1ebcf1;spacing=3;spacingTop=0;spacingBottom=0;textOpacity=80;" vertex="1" parent="1">
          <mxGeometry x="2401.8" y="-20" width="90" height="30" as="geometry" />
        </mxCell>
        <mxCell id="ETBMIqMaUtcxecibXrH7-28" value="201" style="text;strokeColor=none;fillColor=none;align=center;verticalAlign=middle;rounded=0;labelBackgroundColor=#1ebcf1;spacing=3;spacingTop=0;spacingBottom=0;textOpacity=80;" vertex="1" parent="1">
          <mxGeometry x="2397.7000000000003" y="430" width="90" height="30" as="geometry" />
        </mxCell>
        <mxCell id="ETBMIqMaUtcxecibXrH7-29" value="Amount :" style="text;html=1;strokeColor=none;fillColor=none;align=center;verticalAlign=middle;whiteSpace=wrap;rounded=0;" vertex="1" parent="1">
          <mxGeometry x="2321.8" y="430" width="60" height="30" as="geometry" />
        </mxCell>
        <mxCell id="ETBMIqMaUtcxecibXrH7-30" value="USDT" style="text;strokeColor=none;fillColor=none;align=center;verticalAlign=middle;rounded=0;labelBackgroundColor=#1ebcf1;spacing=3;spacingTop=0;spacingBottom=0;textOpacity=80;" vertex="1" parent="1">
          <mxGeometry x="2500" y="430" width="90" height="30" as="geometry" />
        </mxCell>
        <mxCell id="ETBMIqMaUtcxecibXrH7-33" value="" style="rounded=0;whiteSpace=wrap;html=1;fillColor=#fff2cc;strokeColor=#d6b656;fontStyle=1;gradientColor=#b6dfe2;" vertex="1" parent="1">
          <mxGeometry x="2971.8" y="30" width="638.2" height="350" as="geometry" />
        </mxCell>
        <mxCell id="ETBMIqMaUtcxecibXrH7-34" value="" style="endArrow=none;html=1;rounded=0;exitX=1.003;exitY=0.144;exitDx=0;exitDy=0;exitPerimeter=0;entryX=-0.003;entryY=0.141;entryDx=0;entryDy=0;entryPerimeter=0;" edge="1" parent="1">
          <mxGeometry width="50" height="50" relative="1" as="geometry">
            <mxPoint x="3573.6" y="79.96000000000004" as="sourcePoint" />
            <mxPoint x="2970" y="78.94000000000005" as="targetPoint" />
          </mxGeometry>
        </mxCell>
        <mxCell id="ETBMIqMaUtcxecibXrH7-35" value="" style="rounded=0;html=1;labelBackgroundColor=#96d3ee;" vertex="1" parent="1">
          <mxGeometry x="2991.8" y="40" width="80" height="30" as="geometry" />
        </mxCell>
        <mxCell id="ETBMIqMaUtcxecibXrH7-36" value="CryptoWall" style="text;html=1;strokeColor=none;fillColor=none;align=center;verticalAlign=middle;whiteSpace=wrap;rounded=0;fontStyle=1;labelBackgroundColor=none;" vertex="1" parent="1">
          <mxGeometry x="3001.8" y="40" width="60" height="30" as="geometry" />
        </mxCell>
        <mxCell id="ETBMIqMaUtcxecibXrH7-37" value="" style="endArrow=none;html=1;rounded=0;entryX=0;entryY=0;entryDx=0;entryDy=0;exitX=-0.15;exitY=1.333;exitDx=0;exitDy=0;exitPerimeter=0;" edge="1" parent="1" source="ETBMIqMaUtcxecibXrH7-39" target="ETBMIqMaUtcxecibXrH7-38">
          <mxGeometry width="50" height="50" relative="1" as="geometry">
            <mxPoint x="3330" y="180" as="sourcePoint" />
            <mxPoint x="3303.572" y="31.049999999999955" as="targetPoint" />
          </mxGeometry>
        </mxCell>
        <mxCell id="ETBMIqMaUtcxecibXrH7-38" value="" style="rounded=0;whiteSpace=wrap;html=1;" vertex="1" parent="1">
          <mxGeometry x="3280" y="30" width="330" height="50" as="geometry" />
        </mxCell>
        <mxCell id="ETBMIqMaUtcxecibXrH7-39" value="Home" style="text;html=1;strokeColor=none;fillColor=none;align=center;verticalAlign=middle;whiteSpace=wrap;rounded=0;" vertex="1" parent="1">
          <mxGeometry x="3295" y="40" width="60" height="30" as="geometry" />
        </mxCell>
        <mxCell id="ETBMIqMaUtcxecibXrH7-40" value="login" style="text;html=1;strokeColor=none;fillColor=none;align=center;verticalAlign=middle;whiteSpace=wrap;rounded=0;" vertex="1" parent="1">
          <mxGeometry x="3340" y="40" width="60" height="30" as="geometry" />
        </mxCell>
        <mxCell id="ETBMIqMaUtcxecibXrH7-41" value="Singup" style="text;html=1;strokeColor=none;fillColor=none;align=center;verticalAlign=middle;whiteSpace=wrap;rounded=0;" vertex="1" parent="1">
          <mxGeometry x="3390" y="40" width="60" height="30" as="geometry" />
        </mxCell>
        <mxCell id="ETBMIqMaUtcxecibXrH7-42" value="About us" style="text;html=1;strokeColor=none;fillColor=none;align=center;verticalAlign=middle;whiteSpace=wrap;rounded=0;" vertex="1" parent="1">
          <mxGeometry x="3450" y="40" width="60" height="30" as="geometry" />
        </mxCell>
        <mxCell id="ETBMIqMaUtcxecibXrH7-43" value="Contact us" style="text;html=1;strokeColor=none;fillColor=none;align=center;verticalAlign=middle;whiteSpace=wrap;rounded=0;" vertex="1" parent="1">
          <mxGeometry x="3520" y="40" width="60" height="30" as="geometry" />
        </mxCell>
        <mxCell id="ETBMIqMaUtcxecibXrH7-44" value="&lt;h1 style=&quot;text-align: center; border-color: var(--border-color);&quot;&gt;&lt;br&gt;&lt;/h1&gt;" style="text;html=1;spacing=5;spacingTop=-20;whiteSpace=wrap;overflow=hidden;rounded=0;fillColor=#cdf9ee;gradientColor=#cdf5f9;align=left;" vertex="1" parent="1">
          <mxGeometry x="2991.8" y="110" width="298.2" height="250" as="geometry" />
        </mxCell>
        <mxCell id="ETBMIqMaUtcxecibXrH7-45" value="" style="rounded=0;whiteSpace=wrap;html=1;gradientColor=#e9fbfb;fillColor=#cdf2f4;strokeColor=#ffffff;" vertex="1" parent="1">
          <mxGeometry x="3306.8" y="112" width="293.2" height="258" as="geometry" />
        </mxCell>
        <mxCell id="ETBMIqMaUtcxecibXrH7-46" value="Transfer" style="rounded=1;whiteSpace=wrap;html=1;fillColor=#07dfdb;gradientColor=#7de8ab;" vertex="1" parent="1">
          <mxGeometry x="3428.2" y="330" width="81.8" height="30" as="geometry" />
        </mxCell>
        <mxCell id="ETBMIqMaUtcxecibXrH7-47" value="" style="shape=loopLimit;whiteSpace=wrap;html=1;size=20;" vertex="1" parent="1">
          <mxGeometry x="3228.2" y="40" width="40" height="30" as="geometry" />
        </mxCell>
        <mxCell id="ETBMIqMaUtcxecibXrH7-48" value="" style="endArrow=none;html=1;rounded=0;exitX=-0.006;exitY=0.168;exitDx=0;exitDy=0;exitPerimeter=0;" edge="1" parent="1" source="ETBMIqMaUtcxecibXrH7-44">
          <mxGeometry width="50" height="50" relative="1" as="geometry">
            <mxPoint x="3250" y="190" as="sourcePoint" />
            <mxPoint x="3290" y="152" as="targetPoint" />
          </mxGeometry>
        </mxCell>
        <mxCell id="ETBMIqMaUtcxecibXrH7-49" value="" style="endArrow=none;html=1;rounded=0;exitX=0.009;exitY=0.164;exitDx=0;exitDy=0;exitPerimeter=0;entryX=1;entryY=0.168;entryDx=0;entryDy=0;entryPerimeter=0;" edge="1" parent="1" source="ETBMIqMaUtcxecibXrH7-45" target="ETBMIqMaUtcxecibXrH7-45">
          <mxGeometry width="50" height="50" relative="1" as="geometry">
            <mxPoint x="3250" y="190" as="sourcePoint" />
            <mxPoint x="3560" y="146" as="targetPoint" />
          </mxGeometry>
        </mxCell>
        <mxCell id="ETBMIqMaUtcxecibXrH7-50" value="&lt;b&gt;&lt;font style=&quot;font-size: 16px;&quot;&gt;Wallet&lt;/font&gt;&lt;/b&gt;" style="text;html=1;strokeColor=none;fillColor=none;align=left;verticalAlign=middle;whiteSpace=wrap;rounded=0;" vertex="1" parent="1">
          <mxGeometry x="3102.7" y="112" width="68.2" height="30" as="geometry" />
        </mxCell>
        <mxCell id="ETBMIqMaUtcxecibXrH7-51" value="&lt;b&gt;&lt;font style=&quot;font-size: 16px;&quot;&gt;Transfer to any&lt;/font&gt;&lt;/b&gt;" style="text;html=1;strokeColor=none;fillColor=none;align=center;verticalAlign=middle;whiteSpace=wrap;rounded=0;" vertex="1" parent="1">
          <mxGeometry x="3310" y="112" width="250" height="30" as="geometry" />
        </mxCell>
        <mxCell id="ETBMIqMaUtcxecibXrH7-52" value="CryptoId :" style="text;html=1;strokeColor=none;fillColor=none;align=center;verticalAlign=middle;whiteSpace=wrap;rounded=0;" vertex="1" parent="1">
          <mxGeometry x="3321.8" y="170" width="78.2" height="30" as="geometry" />
        </mxCell>
        <mxCell id="ETBMIqMaUtcxecibXrH7-53" value="Network :" style="text;html=1;strokeColor=none;fillColor=none;align=center;verticalAlign=middle;whiteSpace=wrap;rounded=0;" vertex="1" parent="1">
          <mxGeometry x="3330.9" y="200" width="60" height="30" as="geometry" />
        </mxCell>
        <mxCell id="ETBMIqMaUtcxecibXrH7-54" value="CryptoId :" style="text;html=1;strokeColor=none;fillColor=none;align=center;verticalAlign=middle;whiteSpace=wrap;rounded=0;" vertex="1" parent="1">
          <mxGeometry x="3011.8" y="170" width="60" height="30" as="geometry" />
        </mxCell>
        <mxCell id="ETBMIqMaUtcxecibXrH7-55" value="Pin :" style="text;html=1;strokeColor=none;fillColor=none;align=center;verticalAlign=middle;whiteSpace=wrap;rounded=0;" vertex="1" parent="1">
          <mxGeometry x="3001.8" y="200" width="60" height="30" as="geometry" />
        </mxCell>
        <mxCell id="ETBMIqMaUtcxecibXrH7-56" value="Show" style="rounded=1;whiteSpace=wrap;html=1;fillColor=#07dfdb;gradientColor=#7de8ab;" vertex="1" parent="1">
          <mxGeometry x="3095.8999999999996" y="280" width="81.8" height="30" as="geometry" />
        </mxCell>
        <mxCell id="ETBMIqMaUtcxecibXrH7-57" value="Amount :" style="text;html=1;strokeColor=none;fillColor=none;align=center;verticalAlign=middle;whiteSpace=wrap;rounded=0;" vertex="1" parent="1">
          <mxGeometry x="3335" y="230" width="60" height="30" as="geometry" />
        </mxCell>
        <mxCell id="ETBMIqMaUtcxecibXrH7-58" value="USDT" style="text;strokeColor=none;fillColor=none;align=center;verticalAlign=middle;rounded=0;labelBackgroundColor=#1ebcf1;spacing=3;spacingTop=0;spacingBottom=0;textOpacity=80;" vertex="1" parent="1">
          <mxGeometry x="3470" y="230" width="90" height="30" as="geometry" />
        </mxCell>
        <mxCell id="ETBMIqMaUtcxecibXrH7-59" value="EUIW32HCX" style="text;strokeColor=none;fillColor=none;align=center;verticalAlign=middle;rounded=0;labelBackgroundColor=#1ebcf1;spacing=3;spacingTop=0;spacingBottom=0;textOpacity=80;" vertex="1" parent="1">
          <mxGeometry x="3080.9" y="170" width="90" height="30" as="geometry" />
        </mxCell>
        <mxCell id="ETBMIqMaUtcxecibXrH7-60" value="********" style="text;strokeColor=none;fillColor=none;align=center;verticalAlign=middle;rounded=0;labelBackgroundColor=#1ebcf1;spacing=3;spacingTop=0;spacingBottom=0;textOpacity=80;" vertex="1" parent="1">
          <mxGeometry x="3080.9" y="200" width="90" height="30" as="geometry" />
        </mxCell>
        <mxCell id="ETBMIqMaUtcxecibXrH7-61" value="Amount :" style="text;html=1;strokeColor=none;fillColor=none;align=center;verticalAlign=middle;whiteSpace=wrap;rounded=0;" vertex="1" parent="1">
          <mxGeometry x="3011.8" y="230" width="60" height="30" as="geometry" />
        </mxCell>
        <mxCell id="ETBMIqMaUtcxecibXrH7-62" value="Crypto Type" style="text;strokeColor=none;fillColor=none;align=center;verticalAlign=middle;rounded=0;labelBackgroundColor=#1ebcf1;spacing=3;spacingTop=0;spacingBottom=0;textOpacity=80;" vertex="1" parent="1">
          <mxGeometry x="3190" y="230" width="90" height="30" as="geometry" />
        </mxCell>
        <mxCell id="ETBMIqMaUtcxecibXrH7-63" value="Transfer Succeesfully" style="text;html=1;strokeColor=none;fillColor=#91E074;align=center;verticalAlign=middle;whiteSpace=wrap;rounded=0;fontColor=#ffffff;gradientColor=#6d7e7c;" vertex="1" parent="1">
          <mxGeometry x="3380" y="290" width="150" height="30" as="geometry" />
        </mxCell>
        <mxCell id="ETBMIqMaUtcxecibXrH7-64" value="UDABCJK231" style="text;strokeColor=none;fillColor=none;align=center;verticalAlign=middle;rounded=0;labelBackgroundColor=#1ebcf1;spacing=3;spacingTop=0;spacingBottom=0;textOpacity=80;" vertex="1" parent="1">
          <mxGeometry x="3410" y="170" width="90" height="30" as="geometry" />
        </mxCell>
        <mxCell id="ETBMIqMaUtcxecibXrH7-66" value="P2P" style="text;strokeColor=none;fillColor=none;align=center;verticalAlign=middle;rounded=0;labelBackgroundColor=#1ebcf1;spacing=3;spacingTop=0;spacingBottom=0;textOpacity=80;" vertex="1" parent="1">
          <mxGeometry x="3410" y="200" width="90" height="30" as="geometry" />
        </mxCell>
        <mxCell id="ETBMIqMaUtcxecibXrH7-67" value="101" style="text;strokeColor=none;fillColor=none;align=center;verticalAlign=middle;rounded=0;labelBackgroundColor=#1ebcf1;spacing=3;spacingTop=0;spacingBottom=0;textOpacity=80;" vertex="1" parent="1">
          <mxGeometry x="3408.4" y="230" width="90" height="30" as="geometry" />
        </mxCell>
        <mxCell id="ETBMIqMaUtcxecibXrH7-71" value="EUIW32HCX" style="text;strokeColor=none;fillColor=none;align=center;verticalAlign=middle;rounded=0;labelBackgroundColor=#1ebcf1;spacing=3;spacingTop=0;spacingBottom=0;textOpacity=80;" vertex="1" parent="1">
          <mxGeometry x="2400.9" y="380" width="90" height="30" as="geometry" />
        </mxCell>
        <mxCell id="ETBMIqMaUtcxecibXrH7-72" value="EUIW32HCX" style="text;strokeColor=none;fillColor=none;align=center;verticalAlign=middle;rounded=0;labelBackgroundColor=#1ebcf1;spacing=3;spacingTop=0;spacingBottom=0;textOpacity=80;" vertex="1" parent="1">
          <mxGeometry x="2400.9" y="-50" width="90" height="30" as="geometry" />
        </mxCell>
        <mxCell id="ETBMIqMaUtcxecibXrH7-73" value="********" style="text;strokeColor=none;fillColor=none;align=center;verticalAlign=middle;rounded=0;labelBackgroundColor=#1ebcf1;spacing=3;spacingTop=0;spacingBottom=0;textOpacity=80;" vertex="1" parent="1">
          <mxGeometry x="2400.9" y="410" width="90" height="30" as="geometry" />
        </mxCell>
        <mxCell id="ETBMIqMaUtcxecibXrH7-74" value="UDABCJK231" style="text;strokeColor=none;fillColor=none;align=center;verticalAlign=middle;rounded=0;labelBackgroundColor=#1ebcf1;spacing=3;spacingTop=0;spacingBottom=0;textOpacity=80;" vertex="1" parent="1">
          <mxGeometry x="2720" y="-50" width="90" height="30" as="geometry" />
        </mxCell>
        <mxCell id="ETBMIqMaUtcxecibXrH7-75" value="P2P" style="text;strokeColor=none;fillColor=none;align=center;verticalAlign=middle;rounded=0;labelBackgroundColor=#1ebcf1;spacing=3;spacingTop=0;spacingBottom=0;textOpacity=80;" vertex="1" parent="1">
          <mxGeometry x="2710" y="-20" width="90" height="30" as="geometry" />
        </mxCell>
        <mxCell id="ETBMIqMaUtcxecibXrH7-76" value="101" style="text;strokeColor=none;fillColor=none;align=center;verticalAlign=middle;rounded=0;labelBackgroundColor=#1ebcf1;spacing=3;spacingTop=0;spacingBottom=0;textOpacity=80;" vertex="1" parent="1">
          <mxGeometry x="2705" y="10" width="90" height="30" as="geometry" />
        </mxCell>
        <mxCell id="ETBMIqMaUtcxecibXrH7-77" value="USDT" style="text;strokeColor=none;fillColor=none;align=center;verticalAlign=middle;rounded=0;labelBackgroundColor=#1ebcf1;spacing=3;spacingTop=0;spacingBottom=0;textOpacity=80;" vertex="1" parent="1">
          <mxGeometry x="2785" y="10" width="90" height="30" as="geometry" />
        </mxCell>
      </root>
    </mxGraphModel>
  </diagram>
</mxfile>
